<svg xmlns="http://www.w3.org/2000/svg" viewBox="0 0 160.36 38.88"><defs><style>.cls-1{fill:#9a77ff;}.cls-2{fill:#1e2256;}</style></defs><g id="Layer_2" data-name="Layer 2"><g id="logo_design" data-name="logo design"><path class="cls-1" d="M94.6,1.74l.75,0h2.24a.23.23,0,0,1,.23.1,1.11,1.11,0,0,1,.2.77V20a24.55,24.55,0,0,1-4,.32,56.74,56.74,0,0,1-10.8-1.41,61.55,61.55,0,0,0-11.85-1.51H71V2.61a1,1,0,0,1,.21-.74c.1-.13.15-.13.22-.13h1.63l.76,0h2.24a.22.22,0,0,1,.22.1,1.11,1.11,0,0,1,.2.77V16.55H92.54V2.61a1,1,0,0,1,.2-.74c.11-.13.15-.13.23-.13H94.6m0-1.69H93a1.89,1.89,0,0,0-1.51.72,2.71,2.71,0,0,0-.61,1.84V14.86H78.19V2.66A2.85,2.85,0,0,0,77.6.81,1.92,1.92,0,0,0,76.07.1l-1.48,0h0l-1.48,0H71.44a1.91,1.91,0,0,0-1.51.72,2.71,2.71,0,0,0-.61,1.84V19.13c.69-.05,1.37-.07,2.05-.07C79.22,19.06,86.44,22,94,22a25.42,25.42,0,0,0,5.69-.62V2.66A2.79,2.79,0,0,0,99.12.81,1.9,1.9,0,0,0,97.59.1l-1.48,0h0L94.6.05Z"/><path class="cls-2" d="M69.32,19.13v16.8a2.74,2.74,0,0,0,.61,1.82,1.9,1.9,0,0,0,1.51.74l1.51,0h1.64l1.48,0a1.89,1.89,0,0,0,1.53-.74A2.84,2.84,0,0,0,78.19,36V23.73H90.85v12.2a2.74,2.74,0,0,0,.61,1.82,1.88,1.88,0,0,0,1.51.74l1.51,0h1.63l1.48,0a1.87,1.87,0,0,0,1.53-.74A2.78,2.78,0,0,0,99.71,36V21.36C89.3,23.75,79.94,18.4,69.32,19.13Z"/><path class="cls-2" d="M126,23.24,118.51,2.78a2.8,2.8,0,0,0-1.19-1.53,2.61,2.61,0,0,0-.79-.27,7.21,7.21,0,0,0-2.24-.12c-2.05.2-3.07.3-3.65.69a4.49,4.49,0,0,0-1.72,3l-3.73,12.18C113.33,12.82,117.93,22.38,126,23.24Z"/><path class="cls-1" d="M109,17.46c2.51,0,4.88,1.58,7.38,3.26s5.1,3.41,8.33,4l3.6,9.91a1.12,1.12,0,0,1,.06.79c0,.12-.06.14-.16.17l-.86.3-.4.14h0l-.13.06-.1,0-1.1.4-.31.11-.7.25-.73.25-.07,0a.42.42,0,0,1-.16-.07,1.1,1.1,0,0,1-.47-.62l-4.82-13.26-.41-1.11H111l-.37,1.19-4,13a.8.8,0,0,1-.35.51.19.19,0,0,1-.12.05l-.14,0-.86-.28-.43-.14h0l-.11,0-.13,0h0l-.66-.2-.76-.23-.7-.23-.74-.24a.26.26,0,0,1-.2-.18.78.78,0,0,1,0-.6l5.12-16.71a6.58,6.58,0,0,1,2.42-.47m0-1.69a8.85,8.85,0,0,0-3.81.91L99.84,34.14a2.42,2.42,0,0,0,.09,1.8,1.93,1.93,0,0,0,1.24,1.1l1.44.47,1.53.46h0l1.4.46a2.08,2.08,0,0,0,.64.1,1.88,1.88,0,0,0,1-.31,2.5,2.5,0,0,0,1.06-1.45l4-13h4.45l4.82,13.26a2.76,2.76,0,0,0,1.2,1.5,2,2,0,0,0,1,.3,1.87,1.87,0,0,0,.65-.12l1.43-.5,1.51-.54h0l1.4-.49A1.85,1.85,0,0,0,130,36a2.83,2.83,0,0,0-.07-1.92L126,23.24c-6.69-.72-11-7.47-17-7.47Z"/><path class="cls-2" d="M130,20.61V35.88a2.75,2.75,0,0,0,.62,1.82,1.88,1.88,0,0,0,1.5.74l1.52,0h1.63l1.48,0a1.87,1.87,0,0,0,1.53-.74,2.84,2.84,0,0,0,.59-1.82V23.68h12.66v12.2a2.74,2.74,0,0,0,.61,1.82,1.9,1.9,0,0,0,1.51.74l1.51,0h1.64l1.48,0a1.89,1.89,0,0,0,1.53-.74,2.84,2.84,0,0,0,.59-1.82V23.65C151.15,24.27,139.31,13.47,130,20.61Z"/><path class="cls-1" d="M155.25,1.69l.75,0h2.24c.13,0,.16,0,.22.1a1.09,1.09,0,0,1,.21.77V21.94c-2.78-.21-5.86-1.33-9.11-2.52-3.65-1.33-7.41-2.7-11.17-2.92h14.79V2.56a1,1,0,0,1,.21-.75c.1-.12.15-.12.22-.12h1.64m-21.53,0,.75,0h2.24a.23.23,0,0,1,.23.1,1.11,1.11,0,0,1,.2.77V16.47a13.58,13.58,0,0,0-5.48,1.17V2.56a1.06,1.06,0,0,1,.2-.75c.11-.12.15-.12.22-.12h1.64M155.25,0h-1.64a1.93,1.93,0,0,0-1.51.71,2.75,2.75,0,0,0-.61,1.85V14.81H138.83V2.61a2.83,2.83,0,0,0-.59-1.85,1.9,1.9,0,0,0-1.53-.71l-1.48,0h0l-1.48,0h-1.64a1.91,1.91,0,0,0-1.5.71A2.76,2.76,0,0,0,130,2.56V20.61a11.84,11.84,0,0,1,7.41-2.45c7.41,0,15.45,5.51,22.2,5.51l.79,0v-21a2.83,2.83,0,0,0-.59-1.85,1.92,1.92,0,0,0-1.53-.71l-1.48,0h0l-1.47,0Z"/><path class="cls-2" d="M65.47,17.18a11,11,0,0,0-3.92-1.58l-7.39-1.66c-1.06-.24-3.08-.62-3.5-2.27a4,4,0,0,1,0-2.23,2.94,2.94,0,0,1,.93-1.28,4,4,0,0,1,2.93-.62c2,.39,3.91,2.6,5.25,4.16a2.17,2.17,0,0,0,1.29.84c.12,0,.41,0,.66,0s.52,0,.69,0l3.23-.2a2.48,2.48,0,0,0,1.49-.43,2.82,2.82,0,0,0,1-2.13c.21-2.32-2.11-5-4.29-6.67a16.16,16.16,0,0,0-9.42-3H51.53c-2.26,0-8.24.14-10.77,6.21A17.11,17.11,0,0,0,40.25,16,8.26,8.26,0,0,0,43,20.28C50.55,19.28,59.34,15,65.47,17.18Z"/><path class="cls-1" d="M61.58,18.28a10.52,10.52,0,0,1,3.12.42,6.7,6.7,0,0,1,2.48,3.75,13.87,13.87,0,0,1-.4,8c-1.71,4.18-5.28,6.29-10.63,6.29H53c-6,0-9.89-2.49-11.81-7.62,0-.08-.07-.17-.12-.28a1.14,1.14,0,0,1-.15-.49,1.54,1.54,0,0,1,1-1.28,1.29,1.29,0,0,1,.29,0h.14L43.63,27l2.83-.16h.32A.67.67,0,0,1,47,27a19.46,19.46,0,0,1,1.58,2A7.88,7.88,0,0,0,55,32.08a6.28,6.28,0,0,0,1.61-.2,4.53,4.53,0,0,0,3.36-3.22,4.91,4.91,0,0,0-.06-3.14c-1-2.74-3.2-3.16-5.15-3.52l-.28-.06L49.21,21l-.72-.13c1-.24,1.95-.5,2.9-.75,3.51-.93,7.15-1.88,10.19-1.88m0-1.7c-5.64,0-12.51,2.9-18.55,3.7a12.77,12.77,0,0,0,5.91,2.43l5.22.9c2,.38,3.44.57,4.14,2.51a3.1,3.1,0,0,1,0,2,2.85,2.85,0,0,1-2.17,2.09,4.77,4.77,0,0,1-1.18.14A6.26,6.26,0,0,1,50,28a21.21,21.21,0,0,0-1.69-2.15,2.21,2.21,0,0,0-1-.69,2,2,0,0,0-.94-.06l-4,.23h-.06a2.67,2.67,0,0,0-.72.1,3.25,3.25,0,0,0-2.28,2.88,3.36,3.36,0,0,0,.38,1.4c2.12,5.64,6.43,8.72,13.4,8.72h3.11c3.14,0,9.45-.62,12.2-7.35A15.65,15.65,0,0,0,68.8,22a8.23,8.23,0,0,0-3.33-4.77,11.79,11.79,0,0,0-3.89-.6Z"/><path class="cls-2" d="M30.39,19.85V35.93A2.75,2.75,0,0,0,31,37.75a1.88,1.88,0,0,0,1.5.74l1.52,0h1.63l1.48,0a1.87,1.87,0,0,0,1.53-.74A2.78,2.78,0,0,0,39.26,36V18C35.76,17.8,31.87,17.16,30.39,19.85Z"/><path class="cls-1" d="M34.15,1.74l.75,0h2.24a.23.23,0,0,1,.23.1,1.11,1.11,0,0,1,.2.77V16.18c-.75-.05-1.5-.09-2.24-.09a10.77,10.77,0,0,0-3.24.42V2.61a1,1,0,0,1,.2-.74c.11-.13.15-.13.22-.13h1.64m0-1.69H32.51A1.89,1.89,0,0,0,31,.77a2.71,2.71,0,0,0-.62,1.84V19.85c.93-1.69,2.8-2.07,4.94-2.07,1.27,0,2.63.14,3.93.21V2.66A2.85,2.85,0,0,0,38.67.81,1.9,1.9,0,0,0,37.14.1l-1.48,0h0l-1.48,0Z"/><path class="cls-2" d="M29.8.81A1.9,1.9,0,0,0,28.27.1L26.8.08h0l-1.48,0H23.65a1.91,1.91,0,0,0-1.51.72,2.71,2.71,0,0,0-.61,1.84V20.84L8.87,1.62,8.28.81A1.92,1.92,0,0,0,6.75.1L5.27.08h0L3.76.05H2.12A1.91,1.91,0,0,0,.61.77,2.71,2.71,0,0,0,0,2.61V7c10.82,5.94,20.67,21.08,30.39,15.65v-20A2.79,2.79,0,0,0,29.8.81Z"/><path class="cls-1" d="M1.69,10c1.84,1.25,3.68,2.73,5.49,4.24V36a1.14,1.14,0,0,1-.22.76c-.08.1-.11.11-.21.11l-.91,0H2.12c-.06,0-.1,0-.2-.13a1,1,0,0,1-.23-.74V10m8.7,7c5.27,4.49,10.31,8.5,15.68,8.5a10.54,10.54,0,0,0,2.63-.34V36a1.09,1.09,0,0,1-.22.76.19.19,0,0,1-.21.11l-.91,0H23.65c-.07,0-.1,0-.22-.14-.38-.47-.48-.61-.48-.61L10.39,17M0,7v29a2.74,2.74,0,0,0,.61,1.82,1.9,1.9,0,0,0,1.51.74l1.51,0H5.27l1.48,0a1.89,1.89,0,0,0,1.53-.74A2.84,2.84,0,0,0,8.87,36V17.75L21.54,37c.14.22.55.71.6.77a1.9,1.9,0,0,0,1.51.74l1.51,0H26.8l1.47,0a1.87,1.87,0,0,0,1.53-.74A2.78,2.78,0,0,0,30.39,36V22.62a8.71,8.71,0,0,1-4.32,1.16C17.74,23.78,9.22,12,0,7Z"/></g></g></svg>